# xmcd
#
# Track frame offsets: 
#        150
#        4385
#        22307
#        36630
#        49282
#        61290
#        96220
#        109600
#        124567
#        138532
#        154212
#        170547
#        181875
#        192537
#        207445
#        219277
#
# Disc length: 3158 seconds
#
# Revision: 2
# Processed by: cddbd v1.5.2PL0 Copyright (c) Steve Scherf et al.
# Submitted via: ExactAudioCopyFreeDBPlugin 1.0
#
DISCID=f10c5410
DTITLE=The Silvertones - Real Silver
DYEAR=2000
DGENRE=Blues
TTITLE0=Dirty Nails
TTITLE1=Keep On Drinking
TTITLE2=I Love The Blues
TTITLE3=Nylon Legs
TTITLE4=Believe In Me
TTITLE5=Tell Me Baby
TTITLE6=Steady Rollin' Man
TTITLE7=Tired Man
TTITLE8=Summer Statues
TTITLE9=I Wanna Make Love To You
TTITLE10=Woke Up This Morning
TTITLE11=Real Silver
TTITLE12=Teezer
TTITLE13=She Takes Everything
TTITLE14=Don't Take My Whiskey
TTITLE15=Dear Doro
EXTD=
EXTT0=
EXTT1=
EXTT2=
EXTT3=
EXTT4=
EXTT5=
EXTT6=
EXTT7=
EXTT8=
EXTT9=
EXTT10=
EXTT11=
EXTT12=
EXTT13=
EXTT14=
EXTT15=
PLAYORDER=
